<?xml version="1.0" encoding="utf-8"?>
<!-- Generator: Adobe Illustrator 15.1.0, SVG Export Plug-In . SVG Version: 6.00 Build 0)  -->
<!DOCTYPE svg PUBLIC "-//W3C//DTD SVG 1.1//EN" "http://www.w3.org/Graphics/SVG/1.1/DTD/svg11.dtd">
<svg version="1.1" id="Layer_1" xmlns="http://www.w3.org/2000/svg" xmlns:xlink="http://www.w3.org/1999/xlink" x="0px" y="0px"
	 width="328.916px" height="125.302px" viewBox="0 0 328.916 125.302" enable-background="new 0 0 328.916 125.302"
	 xml:space="preserve">
<g>
	<linearGradient id="SVGID_1_" gradientUnits="userSpaceOnUse" x1="180.1289" y1="16.5088" x2="176.0602" y2="39.5835">
		<stop  offset="0" style="stop-color:#005AA9"/>
		<stop  offset="0.6209" style="stop-color:#153885"/>
		<stop  offset="1" style="stop-color:#000037"/>
	</linearGradient>
	<path fill="url(#SVGID_1_)" d="M166.753,19.751l-0.06-1.051h1.276l0.436-0.015c0.601-0.03,1.016-0.045,1.246-0.045
		c0.12,0,0.471,0.01,1.052,0.03c0.13,0.01,0.24,0.015,0.33,0.015s0.405-0.01,0.946-0.03c0.54-0.02,0.846-0.03,0.916-0.03
		c0.109,0,0.265,0.005,0.465,0.015c1.542,1.402,2.799,2.608,3.77,3.62c0.972,1.011,4.516,4.55,10.633,10.617v-0.375l-0.061-1.742
		c-0.029-1.021-0.069-1.83-0.12-2.425c-0.05-0.595-0.08-1.306-0.09-2.132s-0.045-1.574-0.105-2.245
		c-0.12-1.312-0.18-2.067-0.18-2.268c-0.01-0.651-0.08-1.046-0.21-1.187c-0.211-0.22-0.691-0.385-1.442-0.496
		c-0.551-0.09-0.961-0.205-1.231-0.345l0.016-0.886l0.391-0.045l2.958-0.09l3.304-0.09c0.221-0.01,0.431-0.015,0.631-0.015
		l0.015,0.976c-0.23,0.12-0.465,0.21-0.705,0.271c-0.642,0.15-1.012,0.255-1.111,0.315c-0.511,0.291-0.786,0.465-0.826,0.525
		c-0.09,0.12-0.136,0.306-0.136,0.556c0,0.06,0.011,0.271,0.03,0.631c0.01,0.18,0.016,0.601,0.016,1.261
		c0.01,1.452,0.05,2.598,0.12,3.439c0.02,0.271,0.034,0.576,0.045,0.917l0.165,5.271c0.01,0.371,0.015,0.631,0.015,0.781v1.847
		l0.045,0.781l-0.045,0.811c0.04,0.411,0.061,0.656,0.061,0.736v0.796l-1.728,0.06l-1.787-1.847l-3.648-3.619l-2.554-2.553
		l-1.877-1.922c-1.222-1.201-2.333-2.257-3.334-3.168l-2.447-2.208l0.135,5.587c0.01,0.34,0.015,0.69,0.015,1.051l-0.015,1.066
		l0.09,1.967c0.03,0.821,0.085,1.712,0.165,2.673c0.021,0.26,0.046,0.443,0.075,0.548c0.03,0.105,0.091,0.258,0.181,0.458
		c0.391,0.141,1.241,0.246,2.553,0.315c0.09,0.021,0.22,0.055,0.391,0.105l0.06,1.216l-0.585,0.015
		c-0.321,0-1.332-0.075-3.034-0.226c-1.592,0.021-2.653,0.05-3.184,0.09s-0.821,0.06-0.871,0.06c-0.12,0-0.285-0.02-0.495-0.06
		c-0.021-0.23-0.03-0.431-0.03-0.601c0-0.11,0.005-0.29,0.015-0.541c0.28-0.05,0.511-0.075,0.691-0.075
		c0.06,0,0.255,0.01,0.586,0.03c0.841,0,1.339-0.062,1.494-0.188c0.154-0.125,0.242-0.463,0.263-1.014
		c0.069-1.592,0.104-2.563,0.104-2.914v-0.826l0.03-4.88l-0.045-3.049c-0.01-1.161-0.085-1.967-0.226-2.417
		c-0.06-0.23-0.175-0.431-0.345-0.601c-0.351-0.36-0.741-0.63-1.172-0.811C168.52,20.062,167.844,19.922,166.753,19.751z"/>
	<linearGradient id="SVGID_2_" gradientUnits="userSpaceOnUse" x1="204.5781" y1="17.5903" x2="200.7287" y2="39.4215">
		<stop  offset="0" style="stop-color:#005AA9"/>
		<stop  offset="0.6209" style="stop-color:#153885"/>
		<stop  offset="1" style="stop-color:#000037"/>
	</linearGradient>
	<path fill="url(#SVGID_2_)" d="M193.153,18.565c0.571,0.03,1.066,0.075,1.487,0.135c0.791,0.11,1.707,0.166,2.748,0.166
		c0.36,0,1.286-0.03,2.778-0.09c2.232-0.09,4.25-0.135,6.052-0.135l2.719-0.03c0.61,0,1.512,0.075,2.703,0.225
		c0.18,0.201,0.271,0.471,0.271,0.811v3.094l0.029,0.616c0,0.06-0.005,0.15-0.015,0.27l-0.616,0.03c-0.08,0-0.25-0.01-0.51-0.03
		c-0.091-0.2-0.211-0.496-0.361-0.886l-0.601-1.066c-0.23-0.451-0.551-0.911-0.961-1.381c-0.25-0.07-0.57-0.11-0.961-0.12
		c-0.101-0.01-0.405-0.035-0.916-0.075c-0.931-0.08-1.933-0.12-3.004-0.12c-1.222,0-2.312,0.02-3.273,0.06
		c-0.03,0.25-0.045,1.236-0.045,2.958l0.015,2.523v1.892c0.251,0.03,0.467,0.045,0.647,0.045c1.796,0,3.075-0.035,3.838-0.105
		s1.233-0.167,1.414-0.293c0.181-0.125,0.342-0.343,0.482-0.653c0.09-0.22,0.266-0.956,0.526-2.208l0.195-0.015l0.871,0.015
		c0.04,0.891,0.06,1.567,0.06,2.027c0,1.051-0.007,1.727-0.022,2.027c-0.015,0.3-0.022,0.536-0.022,0.706
		c0,0.27,0.016,0.703,0.045,1.299c0.03,0.596,0.046,1.039,0.046,1.329v0.331h-1.066c-0.041-0.16-0.116-0.491-0.226-0.991
		c-0.201-0.931-0.382-1.512-0.542-1.742c-0.121-0.18-0.321-0.315-0.603-0.405c-0.2-0.07-0.942-0.105-2.228-0.105
		c-1.515,0-2.653,0.041-3.416,0.12c0,0.261,0,0.431,0,0.511c0,1.191,0.021,2.183,0.061,2.974l-0.03,3.244
		c0,0.38,0.135,0.641,0.405,0.781c0.41,0.21,1.667,0.315,3.77,0.315c1.392,0,2.573-0.105,3.544-0.315
		c0.671-0.15,1.262-0.485,1.772-1.006c0.681-0.671,1.246-1.612,1.697-2.823c0.31-0.03,0.565-0.045,0.766-0.045
		c0.109,0,0.275,0.005,0.495,0.015c-0.029,0.25-0.054,0.46-0.073,0.631l-0.089,0.45l-0.548,2.838l-0.266,1.712
		c-0.651,0.03-1.168,0.045-1.548,0.045c-0.562,0-2.06-0.05-4.494-0.15c-1.714-0.07-3.777-0.105-6.192-0.105
		c-1.202,0-2.68,0.05-4.434,0.15h-0.631l-1.818,0.06v-1.036c0.189-0.05,0.57-0.105,1.141-0.165c1.041-0.12,1.763-0.28,2.163-0.48
		c0.109-0.291,0.165-0.656,0.165-1.096c0-0.17-0.005-0.46-0.015-0.871l0.015-0.466l-0.045-5.662l0.015-1.697l-0.075-2.403
		l0.016-1.697l-0.136-1.862c0-0.05-0.01-0.15-0.03-0.3c-0.1-0.11-0.25-0.18-0.45-0.21c-0.11-0.02-0.261-0.05-0.45-0.09
		c-0.571-0.12-1.121-0.19-1.652-0.21c-0.19-0.01-0.41-0.03-0.66-0.06L193.153,18.565z"/>
	<linearGradient id="SVGID_3_" gradientUnits="userSpaceOnUse" x1="228.6035" y1="16.3657" x2="224.6497" y2="38.7889">
		<stop  offset="0" style="stop-color:#005AA9"/>
		<stop  offset="0.6209" style="stop-color:#153885"/>
		<stop  offset="1" style="stop-color:#000037"/>
	</linearGradient>
	<path fill="url(#SVGID_3_)" d="M214.373,19.662l-0.075-0.931c0.12-0.06,0.216-0.09,0.285-0.09c0.831,0.054,1.662,0.095,2.493,0.122
		c0.341,0.009,0.561,0.014,0.661,0.014c0.36,0,0.78-0.015,1.262-0.045l1.952-0.09c0.069,0.041,0.114,0.096,0.135,0.166l-0.12,0.691
		c-0.19,0.12-0.375,0.225-0.556,0.315c-0.4,0.221-0.601,0.401-0.601,0.541c0,0.13,0.05,0.295,0.15,0.496
		c0.06,0.12,0.14,0.325,0.24,0.616c0.17,0.49,0.65,1.682,1.441,3.574l3.89,9.071c0.511-0.951,1.307-2.553,2.388-4.806l-2.196-5.286
		c-0.408-0.991-0.763-1.807-1.064-2.448c-0.101-0.21-0.187-0.411-0.257-0.601c-0.061-0.1-0.141-0.248-0.242-0.443
		c-0.101-0.195-0.256-0.355-0.468-0.48c-0.211-0.125-0.714-0.283-1.509-0.473l0.06-0.901c0.32,0,0.761,0.015,1.321,0.045
		c0.812,0.06,1.332,0.09,1.562,0.09l2.103-0.03l2.598-0.15c0.05,0.01,0.12,0.015,0.21,0.015l0.016,0.511v0.18
		c0,0.06-0.021,0.141-0.061,0.24c-0.17,0.05-0.44,0.095-0.811,0.135c-0.261,0.02-0.443,0.075-0.549,0.165
		c-0.104,0.09-0.157,0.195-0.157,0.315c0,0.3,0.105,0.666,0.315,1.096c0.09,0.19,0.21,0.481,0.36,0.871
		c0.501,1.282,0.886,2.218,1.156,2.809l1.052-2.178c0.48-1.001,0.796-1.737,0.945-2.208c0.03-0.1,0.046-0.185,0.046-0.255v-0.09
		c-0.121-0.13-0.23-0.22-0.331-0.271c-0.25-0.11-0.676-0.24-1.276-0.391c-0.021-0.19-0.03-0.335-0.03-0.436
		c0-0.11,0.016-0.275,0.045-0.496c0.331,0,1.267,0.025,2.809,0.075c0.911,0.03,1.492,0.045,1.742,0.045
		c0.21,0,0.396-0.002,0.556-0.007c0.16-0.005,0.33-0.007,0.511-0.007l0.03,0.12l-0.046,0.676l-0.029,0.075
		c-1.082,0.31-1.728,0.536-1.938,0.676s-0.411,0.37-0.601,0.69c-0.501,0.881-1.427,2.724-2.778,5.526l0.06,0.135l0.962,2.223
		l1.637,3.859c0.17,0.381,0.29,0.661,0.36,0.841l1.892-4.956l2.644-6.743l0.421-1.262c0.02-0.08,0.029-0.16,0.029-0.24l-0.045-0.255
		c-0.34-0.11-0.618-0.192-0.833-0.248c-0.216-0.055-0.403-0.132-0.563-0.233c-0.03-0.33-0.045-0.535-0.045-0.616
		c0-0.08,0.035-0.185,0.105-0.315l0.24-0.03l2.252,0.09l1.487-0.09l0.315,0.045c0.029,0.18,0.045,0.34,0.045,0.48
		c0,0.18-0.035,0.326-0.105,0.436c-0.05,0.07-0.15,0.13-0.301,0.18c-0.411,0.201-0.691,0.391-0.842,0.571
		c-0.11,0.12-0.266,0.456-0.466,1.006c-0.871,2.343-1.769,4.601-2.695,6.773c-0.926,2.172-2.305,5.631-4.136,10.377l-1.499,0.015
		c-0.101-0.36-0.211-0.666-0.331-0.916c-0.29-0.651-0.461-1.062-0.511-1.231l-1.668-3.845c-0.27-0.641-0.49-1.116-0.66-1.427
		c-0.03-0.05-0.07-0.12-0.12-0.21c-0.021,0.05-0.551,1.054-1.592,3.011c-1.04,1.958-1.802,3.487-2.284,4.588l-1.532,0.015
		c-0.36-1.101-1.066-2.793-2.117-5.076l-4.851-11.353c-0.511-1.151-0.876-1.837-1.097-2.058c-0.08-0.08-0.23-0.165-0.45-0.255
		C214.639,19.767,214.523,19.722,214.373,19.662z"/>
	<linearGradient id="SVGID_4_" gradientUnits="userSpaceOnUse" x1="177.1992" y1="51.2407" x2="173.4799" y2="72.3338">
		<stop  offset="0" style="stop-color:#005AA9"/>
		<stop  offset="0.6209" style="stop-color:#153885"/>
		<stop  offset="1" style="stop-color:#000037"/>
	</linearGradient>
	<path fill="url(#SVGID_4_)" d="M166.242,54.338v-1.292c0.521,0.01,0.836,0.02,0.946,0.03c1.231,0.14,2.849,0.21,4.851,0.21
		c0.301,0,0.911-0.03,1.832-0.09c0.661-0.05,1.156-0.1,1.487-0.15h1.096c0.021,0.731,0.03,1.142,0.03,1.231
		c-1.001,0.13-1.587,0.215-1.757,0.255c-0.44,0.12-0.766,0.28-0.977,0.48c-0.11,0.11-0.165,0.24-0.165,0.391
		c0,0.11,0.01,0.22,0.03,0.33l0.495,1.307c0.351,1.021,0.932,2.408,1.742,4.16l1.712,3.875c0.331,0.75,0.631,1.461,0.901,2.131
		l0.871-2.131l1.787-4.956l0.42-1.051c0.051-0.15,0.115-0.36,0.195-0.631c0.261-0.891,0.479-1.566,0.653-2.027
		c0.176-0.46,0.263-0.835,0.263-1.126c0-0.19-0.095-0.355-0.285-0.496c-0.29-0.22-0.766-0.36-1.427-0.42
		c-0.14-0.04-0.325-0.073-0.556-0.098s-0.436-0.058-0.615-0.098c-0.061-0.2-0.09-0.351-0.09-0.451c0-0.13,0.02-0.36,0.06-0.691
		c0.181,0,0.695,0.041,1.547,0.12c0.851,0.081,1.682,0.12,2.493,0.12c0.831,0,1.541-0.037,2.132-0.112s1.071-0.118,1.442-0.128
		v0.481c0,0.12-0.006,0.3-0.016,0.541c-1.291,0.471-2.047,0.791-2.268,0.961c-0.14,0.1-0.275,0.266-0.405,0.496
		c-0.381,0.671-0.961,2.027-1.742,4.07l-1.922,4.97c-0.181,0.48-0.378,0.989-0.594,1.525c-0.215,0.535-0.442,1.123-0.683,1.764
		c-0.051,0.15-0.285,0.752-0.706,1.803l-0.15,0.27c-0.44,1.412-0.771,2.389-0.991,2.93c-0.396,0.02-0.645,0.029-0.743,0.029
		c-0.188,0-0.451-0.01-0.788-0.029c-0.11-0.301-0.221-0.605-0.331-0.916s-0.536-1.396-1.277-3.26l-2.84-6.367l-1.697-4.1
		c-0.871-1.862-1.348-2.858-1.428-2.988c-0.171-0.25-0.362-0.43-0.573-0.541s-0.648-0.195-1.312-0.255L166.242,54.338z"/>
	<linearGradient id="SVGID_5_" gradientUnits="userSpaceOnUse" x1="199.127" y1="52.2222" x2="195.2777" y2="74.0524">
		<stop  offset="0" style="stop-color:#005AA9"/>
		<stop  offset="0.6209" style="stop-color:#153885"/>
		<stop  offset="1" style="stop-color:#000037"/>
	</linearGradient>
	<path fill="url(#SVGID_5_)" d="M187.702,53.197c0.571,0.03,1.066,0.075,1.487,0.135c0.791,0.11,1.707,0.166,2.748,0.166
		c0.36,0,1.286-0.03,2.778-0.09c2.232-0.09,4.25-0.135,6.052-0.135l2.719-0.03c0.61,0,1.512,0.075,2.703,0.225
		c0.18,0.201,0.271,0.471,0.271,0.811v3.094l0.029,0.616c0,0.06-0.005,0.15-0.015,0.27l-0.616,0.03c-0.08,0-0.25-0.01-0.51-0.03
		c-0.091-0.2-0.211-0.496-0.361-0.886l-0.601-1.066c-0.23-0.451-0.551-0.911-0.961-1.381c-0.25-0.07-0.57-0.11-0.961-0.12
		c-0.101-0.01-0.405-0.035-0.916-0.075c-0.931-0.08-1.933-0.12-3.004-0.12c-1.222,0-2.312,0.02-3.273,0.06
		c-0.03,0.25-0.045,1.236-0.045,2.958l0.015,2.523v1.892c0.251,0.03,0.467,0.045,0.647,0.045c1.796,0,3.075-0.035,3.838-0.105
		s1.233-0.167,1.414-0.293c0.181-0.125,0.342-0.343,0.482-0.653c0.09-0.22,0.266-0.956,0.526-2.208l0.195-0.015l0.871,0.015
		c0.04,0.891,0.06,1.567,0.06,2.027c0,1.051-0.007,1.727-0.022,2.028c-0.015,0.3-0.022,0.535-0.022,0.705
		c0,0.271,0.016,0.703,0.045,1.299c0.03,0.596,0.046,1.039,0.046,1.33v0.33h-1.066c-0.041-0.16-0.116-0.49-0.226-0.991
		c-0.201-0.931-0.382-1.512-0.542-1.742c-0.121-0.181-0.321-0.315-0.603-0.405c-0.2-0.07-0.942-0.105-2.228-0.105
		c-1.515,0-2.653,0.041-3.416,0.12c0,0.261,0,0.431,0,0.511c0,1.191,0.021,2.183,0.061,2.974l-0.03,3.242
		c0,0.381,0.135,0.641,0.405,0.781c0.41,0.211,1.667,0.316,3.77,0.316c1.392,0,2.573-0.105,3.544-0.316
		c0.671-0.15,1.262-0.484,1.772-1.006c0.681-0.67,1.246-1.611,1.697-2.822c0.31-0.031,0.565-0.047,0.766-0.047
		c0.109,0,0.275,0.006,0.495,0.016c-0.029,0.25-0.054,0.461-0.073,0.631l-0.089,0.451l-0.548,2.838l-0.266,1.711
		c-0.651,0.031-1.168,0.047-1.548,0.047c-0.562,0-2.06-0.051-4.494-0.15c-1.714-0.07-3.777-0.105-6.192-0.105
		c-1.202,0-2.68,0.051-4.434,0.15h-0.631l-1.818,0.059v-1.035c0.189-0.051,0.57-0.105,1.141-0.166
		c1.041-0.119,1.763-0.279,2.163-0.48c0.109-0.289,0.165-0.654,0.165-1.096c0-0.17-0.005-0.461-0.015-0.871l0.015-0.465
		l-0.045-5.662l0.015-1.697l-0.075-2.403l0.016-1.697l-0.136-1.862c0-0.05-0.01-0.15-0.03-0.3c-0.1-0.11-0.25-0.18-0.45-0.21
		c-0.11-0.02-0.261-0.05-0.45-0.09c-0.571-0.12-1.121-0.19-1.652-0.21c-0.19-0.01-0.41-0.03-0.66-0.06L187.702,53.197z"/>
	<linearGradient id="SVGID_6_" gradientUnits="userSpaceOnUse" x1="222.418" y1="51.1406" x2="218.3494" y2="74.2148">
		<stop  offset="0" style="stop-color:#005AA9"/>
		<stop  offset="0.6209" style="stop-color:#153885"/>
		<stop  offset="1" style="stop-color:#000037"/>
	</linearGradient>
	<path fill="url(#SVGID_6_)" d="M209.042,54.383l-0.06-1.051h1.276l0.436-0.015c0.601-0.03,1.016-0.045,1.246-0.045
		c0.12,0,0.471,0.01,1.052,0.03c0.13,0.01,0.24,0.015,0.33,0.015s0.405-0.01,0.946-0.03c0.54-0.02,0.846-0.03,0.916-0.03
		c0.109,0,0.265,0.005,0.465,0.015c1.542,1.402,2.799,2.608,3.77,3.62c0.972,1.011,4.516,4.55,10.633,10.617v-0.375l-0.061-1.742
		c-0.029-1.021-0.069-1.83-0.12-2.426c-0.05-0.595-0.08-1.306-0.09-2.132s-0.045-1.574-0.105-2.245
		c-0.12-1.312-0.18-2.067-0.18-2.268c-0.01-0.651-0.08-1.046-0.21-1.187c-0.211-0.22-0.691-0.385-1.442-0.496
		c-0.551-0.09-0.961-0.205-1.231-0.345l0.016-0.886l0.391-0.045l2.958-0.09l3.304-0.09c0.221-0.01,0.431-0.015,0.631-0.015
		l0.015,0.976c-0.23,0.12-0.465,0.21-0.705,0.271c-0.642,0.15-1.012,0.255-1.111,0.315c-0.511,0.291-0.786,0.465-0.826,0.525
		c-0.09,0.12-0.136,0.306-0.136,0.556c0,0.06,0.011,0.271,0.03,0.631c0.01,0.18,0.016,0.601,0.016,1.261
		c0.01,1.452,0.05,2.598,0.12,3.439c0.02,0.271,0.034,0.576,0.045,0.917l0.165,5.271c0.01,0.371,0.015,0.631,0.015,0.781v1.846
		l0.045,0.781l-0.045,0.811c0.04,0.412,0.061,0.656,0.061,0.736v0.797l-1.728,0.059l-1.787-1.846l-3.648-3.619l-2.554-2.553
		l-1.877-1.923c-1.222-1.201-2.333-2.257-3.334-3.168l-2.447-2.208l0.135,5.587c0.01,0.34,0.015,0.69,0.015,1.051l-0.015,1.066
		l0.09,1.966c0.03,0.822,0.085,1.713,0.165,2.674c0.021,0.26,0.046,0.443,0.075,0.549c0.03,0.105,0.091,0.258,0.181,0.457
		c0.391,0.141,1.241,0.246,2.553,0.316c0.09,0.02,0.22,0.055,0.391,0.105l0.06,1.215l-0.585,0.016c-0.321,0-1.332-0.074-3.034-0.225
		c-1.592,0.02-2.653,0.049-3.184,0.09c-0.53,0.039-0.821,0.061-0.871,0.061c-0.12,0-0.285-0.021-0.495-0.061
		c-0.021-0.23-0.03-0.432-0.03-0.602c0-0.109,0.005-0.289,0.015-0.541c0.28-0.049,0.511-0.074,0.691-0.074
		c0.06,0,0.255,0.01,0.586,0.029c0.841,0,1.339-0.062,1.494-0.188c0.154-0.125,0.242-0.463,0.263-1.014
		c0.069-1.592,0.104-2.562,0.104-2.912v-0.826l0.03-4.881l-0.045-3.049c-0.01-1.161-0.085-1.967-0.226-2.417
		c-0.06-0.23-0.175-0.431-0.345-0.601c-0.351-0.36-0.741-0.63-1.172-0.811C210.809,54.693,210.133,54.553,209.042,54.383z"/>
	<linearGradient id="SVGID_7_" gradientUnits="userSpaceOnUse" x1="246.1279" y1="50.7598" x2="242.1908" y2="73.0882">
		<stop  offset="0" style="stop-color:#005AA9"/>
		<stop  offset="0.6209" style="stop-color:#153885"/>
		<stop  offset="1" style="stop-color:#000037"/>
	</linearGradient>
	<path fill="url(#SVGID_7_)" d="M236.434,52.355h0.932c0.069,0.112,0.12,0.193,0.15,0.244c0.28,0.486,0.495,0.806,0.646,0.958
		c0.13,0.03,0.815,0.045,2.058,0.045c0.771,0,1.456-0.004,2.057-0.011l0.301-0.034l1.817-0.015l3.394,0.015h4.641l0.886-0.122
		c0.13-0.091,0.271-0.334,0.421-0.73c0.04-0.091,0.095-0.218,0.165-0.38l0.661-0.015c0.1,0,0.25,0.005,0.45,0.015
		c0.01,0.691,0.015,1.732,0.015,3.124l0.016,1.336l-0.016,0.766c0,0.26-0.02,0.486-0.06,0.676c-0.411,0.13-0.771,0.21-1.081,0.24
		c-0.262-0.391-0.545-0.956-0.851-1.697c-0.307-0.741-0.5-1.151-0.58-1.231c-0.12-0.13-0.261-0.215-0.421-0.255
		c-0.241-0.05-1.306-0.075-3.192-0.075c-0.28,0-0.632,0.02-1.054,0.06c-0.05,0.391-0.075,0.711-0.075,0.961l0.016,2.013v4.415
		l0.045,4.76l-0.016,1.953c0,0.689,0.061,1.211,0.182,1.561c0.161,0.07,0.457,0.135,0.891,0.195c0.08,0.01,0.452,0.09,1.116,0.24
		c0.302,0.07,0.568,0.15,0.8,0.24c0.051,0.361,0.075,0.582,0.075,0.662c0,0.09-0.015,0.219-0.045,0.389
		c-0.221,0.012-0.4,0.016-0.54,0.016c-1.032,0-1.907-0.037-2.629-0.113c-0.721-0.074-2.027-0.111-3.919-0.111
		c-0.301,0-1.182,0.061-2.644,0.18c-0.57,0.041-0.94,0.061-1.111,0.061c-0.01-0.15-0.02-0.266-0.029-0.346l-0.016-0.346v-0.119
		c0.221-0.291,0.636-0.506,1.247-0.646c1.041-0.25,1.762-0.475,2.162-0.676c0.101-0.189,0.16-0.441,0.181-0.75
		c0.069-1.203,0.104-3.115,0.104-5.738l-0.075-5.676c0-1.562-0.029-2.508-0.09-2.838c-0.02-0.09-0.055-0.158-0.104-0.203
		c-0.051-0.045-0.12-0.072-0.211-0.083c-0.311-0.04-1.321-0.06-3.033-0.06c-0.941,0-1.572,0.09-1.893,0.271
		c-0.431,0.25-1.076,0.931-1.937,2.042c-0.251,0.321-0.436,0.481-0.556,0.481c-0.461-0.241-0.757-0.436-0.887-0.586
		c0.311-0.651,0.741-1.952,1.292-3.904C236.249,52.941,236.364,52.556,236.434,52.355z"/>
	<linearGradient id="SVGID_8_" gradientUnits="userSpaceOnUse" x1="267.709" y1="51.4473" x2="263.9503" y2="72.7639">
		<stop  offset="0" style="stop-color:#005AA9"/>
		<stop  offset="0.6209" style="stop-color:#153885"/>
		<stop  offset="1" style="stop-color:#000037"/>
	</linearGradient>
	<path fill="url(#SVGID_8_)" d="M256.542,54.458l-0.045-1.187c0.181-0.01,0.366-0.015,0.557-0.015c0.501,0,1.027,0.015,1.579,0.045
		c1.323,0.07,2.101,0.105,2.331,0.105c0.802,0,1.587-0.016,2.354-0.047c0.768-0.032,1.449-0.052,2.046-0.061s1-0.018,1.211-0.027
		l-0.016,0.178l0.03,0.875v0.119c-0.561,0.081-1.142,0.12-1.742,0.12c-0.561,0-0.931,0.11-1.111,0.331
		c-0.12,0.14-0.18,0.736-0.18,1.787c0,0.32,0.005,0.581,0.015,0.781l0.016,0.541l-0.03,1.412l0.09,1.201l-0.06,2.598l0.195,3.769
		c0.05,1.092,0.29,1.998,0.721,2.719c0.32,0.529,0.771,0.945,1.352,1.246c0.841,0.42,1.667,0.631,2.478,0.631
		c0.961,0,1.857-0.125,2.688-0.375c0.49-0.141,0.953-0.369,1.389-0.684c0.436-0.316,0.738-0.604,0.909-0.863
		c0.36-0.551,0.61-1.066,0.75-1.547c0.19-0.662,0.286-1.688,0.286-3.08c0-2.422-0.131-5.15-0.391-8.184l-0.061-0.796
		c-0.03-0.59-0.14-0.986-0.33-1.186c-0.32-0.311-0.681-0.466-1.081-0.466l-1.412,0.03l-0.195-0.045l0.03-1.156h1.187l2.868,0.135
		c0.961,0,1.877-0.045,2.748-0.135l0.256,0.03c0.06,0.33,0.09,0.561,0.09,0.69c0,0.11-0.021,0.246-0.061,0.406
		c-0.37,0.102-0.761,0.162-1.171,0.18c-0.671,0.09-1.041,0.166-1.111,0.226c-0.141,0.12-0.21,0.305-0.21,0.556
		c0,0.18,0.015,0.441,0.045,0.781c0.03,0.25,0.045,0.687,0.045,1.308c0,0.351,0.002,0.626,0.008,0.827
		c0.005,0.2,0.012,0.406,0.022,0.616c0.029,0.722,0.055,1.453,0.075,2.194l0.149,3.051c0,2.044-0.069,3.412-0.21,4.103
		s-0.33,1.236-0.57,1.639c-0.371,0.6-0.896,1.154-1.577,1.66s-1.532,0.906-2.553,1.203c-1.021,0.295-2.213,0.441-3.574,0.441
		c-1.552,0-2.884-0.207-3.995-0.623c-1.111-0.414-1.949-0.961-2.515-1.637c-0.566-0.676-0.954-1.555-1.164-2.635
		c-0.15-0.74-0.226-1.803-0.226-3.183v-7.164c0-1.692-0.08-2.648-0.24-2.868c-0.221-0.31-0.906-0.485-2.058-0.526
		C256.923,54.503,256.713,54.488,256.542,54.458z"/>
	<linearGradient id="SVGID_9_" gradientUnits="userSpaceOnUse" x1="292.7441" y1="53.1465" x2="289.0417" y2="74.1439">
		<stop  offset="0" style="stop-color:#005AA9"/>
		<stop  offset="0.6209" style="stop-color:#153885"/>
		<stop  offset="1" style="stop-color:#000037"/>
	</linearGradient>
	<path fill="url(#SVGID_9_)" d="M280.631,71.713c0.261-0.141,0.646-0.242,1.156-0.309c0.511-0.064,0.972-0.172,1.382-0.322
		c0.05-0.199,0.08-0.346,0.09-0.436c0.021-0.141,0.03-0.621,0.03-1.441l-0.015-3.35l0.06-1.801l-0.03-1.396l0.03-0.811
		c0.03-1.091,0.045-2.112,0.045-3.063c0-2.083-0.024-3.414-0.075-3.995l-0.886-0.18c-0.811-0.05-1.352-0.1-1.622-0.15l-0.029-0.901
		l0.06-0.166c0.501-0.08,0.961-0.12,1.382-0.12c0.23,0,0.695-0.005,1.396-0.015c0.721,0.06,1.111,0.09,1.171,0.09l0.796-0.045
		l1.878-0.09c1.171-0.12,2.407-0.18,3.709-0.18c2.053,0,3.685,0.523,4.896,1.569c1.212,1.046,1.817,2.245,1.817,3.597
		c0,1.012-0.327,1.93-0.98,2.756s-1.659,1.449-3.016,1.87c0.119,0.211,0.279,0.455,0.479,0.736c0.419,0.6,0.759,1.111,1.018,1.531
		l2.395,3.89c0.601,1.031,0.994,1.635,1.18,1.809c0.185,0.176,0.567,0.369,1.148,0.578c0.45,0.17,0.796,0.342,1.036,0.512
		c0.061,0.17,0.09,0.32,0.09,0.449c0,0.09-0.005,0.205-0.015,0.346H300.8l-0.301,0.016l-0.781-0.105h-0.615
		c-0.32-0.051-0.716-0.074-1.187-0.074l-1.502-0.016c-0.11,0-0.46,0.035-1.051,0.105c-0.271,0.029-0.486,0.055-0.646,0.074
		l-0.511-0.99c-0.421-0.752-0.716-1.312-0.887-1.684c-0.44-0.971-1.196-2.518-2.268-4.639c-0.5-0.981-0.851-1.536-1.051-1.667
		c-0.301-0.211-0.816-0.315-1.547-0.315c-0.2,0-0.541,0.011-1.021,0.03c-0.029,0.291-0.045,0.636-0.045,1.036l0.075,3.334
		l-0.09,2.822c0.28,0.17,0.646,0.301,1.096,0.391c0.781,0.16,1.452,0.35,2.013,0.57c0,0.49-0.02,0.861-0.06,1.111
		c-0.19-0.01-0.311-0.016-0.36-0.016l-0.616,0.031c-2.152-0.191-3.429-0.285-3.829-0.285c-0.261,0-0.446,0.004-0.556,0.014
		l-2.073,0.137c-0.63,0.07-1.206,0.104-1.727,0.104h-0.646c-0.021-0.25-0.03-0.41-0.03-0.48
		C280.586,72.068,280.601,71.914,280.631,71.713z M287.389,61.997c0.48,0.02,0.831,0.03,1.052,0.03c1.701,0,2.908-0.305,3.619-0.916
		c0.711-0.61,1.066-1.427,1.066-2.448c0-0.631-0.088-1.224-0.263-1.78s-0.392-0.969-0.651-1.239
		c-0.369-0.391-0.854-0.686-1.453-0.886c-0.439-0.15-1.144-0.225-2.111-0.225c-0.46,0-0.854,0.025-1.184,0.075l-0.03,0.285
		l0.03,2.027l-0.045,1.231l0.015,1.637c-0.02,0.461-0.035,1.057-0.045,1.787V61.997z"/>
	<linearGradient id="SVGID_10_" gradientUnits="userSpaceOnUse" x1="312.8555" y1="52.2217" x2="309.006" y2="74.0529">
		<stop  offset="0" style="stop-color:#005AA9"/>
		<stop  offset="0.6209" style="stop-color:#153885"/>
		<stop  offset="1" style="stop-color:#000037"/>
	</linearGradient>
	<path fill="url(#SVGID_10_)" d="M301.43,53.197c0.571,0.03,1.066,0.075,1.487,0.135c0.791,0.11,1.707,0.166,2.748,0.166
		c0.36,0,1.286-0.03,2.778-0.09c2.232-0.09,4.25-0.135,6.052-0.135l2.719-0.03c0.61,0,1.512,0.075,2.703,0.225
		c0.18,0.201,0.271,0.471,0.271,0.811v3.094l0.029,0.616c0,0.06-0.005,0.15-0.015,0.27l-0.616,0.03c-0.08,0-0.25-0.01-0.51-0.03
		c-0.091-0.2-0.211-0.496-0.361-0.886l-0.601-1.066c-0.23-0.451-0.551-0.911-0.961-1.381c-0.25-0.07-0.57-0.11-0.961-0.12
		c-0.101-0.01-0.405-0.035-0.916-0.075c-0.931-0.08-1.933-0.12-3.004-0.12c-1.222,0-2.312,0.02-3.273,0.06
		c-0.03,0.25-0.045,1.236-0.045,2.958l0.015,2.523v1.892c0.251,0.03,0.467,0.045,0.647,0.045c1.796,0,3.075-0.035,3.838-0.105
		s1.233-0.167,1.414-0.293c0.181-0.125,0.342-0.343,0.482-0.653c0.09-0.22,0.266-0.956,0.526-2.208l0.195-0.015l0.871,0.015
		c0.04,0.891,0.06,1.567,0.06,2.027c0,1.051-0.007,1.727-0.022,2.028c-0.015,0.3-0.022,0.535-0.022,0.705
		c0,0.271,0.016,0.703,0.045,1.299c0.03,0.596,0.046,1.039,0.046,1.33v0.33h-1.066c-0.041-0.16-0.116-0.49-0.226-0.991
		c-0.201-0.931-0.382-1.512-0.542-1.742c-0.121-0.181-0.321-0.315-0.603-0.405c-0.2-0.07-0.942-0.105-2.228-0.105
		c-1.515,0-2.653,0.041-3.416,0.12c0,0.261,0,0.431,0,0.511c0,1.191,0.021,2.183,0.061,2.974l-0.03,3.242
		c0,0.381,0.135,0.641,0.405,0.781c0.41,0.211,1.667,0.316,3.77,0.316c1.392,0,2.573-0.105,3.544-0.316
		c0.671-0.15,1.262-0.484,1.772-1.006c0.681-0.67,1.246-1.611,1.697-2.822c0.31-0.031,0.565-0.047,0.766-0.047
		c0.109,0,0.275,0.006,0.495,0.016c-0.029,0.25-0.054,0.461-0.073,0.631l-0.089,0.451l-0.548,2.838l-0.266,1.711
		c-0.651,0.031-1.168,0.047-1.548,0.047c-0.562,0-2.06-0.051-4.494-0.15c-1.714-0.07-3.777-0.105-6.192-0.105
		c-1.202,0-2.68,0.051-4.434,0.15h-0.631l-1.818,0.059v-1.035c0.189-0.051,0.57-0.105,1.141-0.166
		c1.041-0.119,1.763-0.279,2.163-0.48c0.109-0.289,0.165-0.654,0.165-1.096c0-0.17-0.005-0.461-0.015-0.871l0.015-0.465
		l-0.045-5.662l0.015-1.697l-0.075-2.403l0.016-1.697l-0.136-1.862c0-0.05-0.01-0.15-0.03-0.3c-0.1-0.11-0.25-0.18-0.45-0.21
		c-0.11-0.02-0.261-0.05-0.45-0.09c-0.571-0.12-1.121-0.19-1.652-0.21c-0.19-0.01-0.41-0.03-0.66-0.06L301.43,53.197z"/>
	<linearGradient id="SVGID_11_" gradientUnits="userSpaceOnUse" x1="176.584" y1="87.291" x2="172.8902" y2="108.2393">
		<stop  offset="0" style="stop-color:#005AA9"/>
		<stop  offset="0.6209" style="stop-color:#153885"/>
		<stop  offset="1" style="stop-color:#000037"/>
	</linearGradient>
	<path fill="url(#SVGID_11_)" d="M167.324,88.834l-0.016-1.141l3.589,0.225l1.607-0.016h0.586c0.61,0,1.566-0.035,2.868-0.105
		c0.74-0.049,1.206-0.074,1.396-0.074c1.262,0,2.213,0.07,2.854,0.211c0.98,0.199,1.759,0.52,2.335,0.961
		c0.575,0.439,1.071,1.068,1.486,1.885c0.416,0.816,0.624,1.574,0.624,2.275c0,1.74-0.549,3.156-1.645,4.242
		c-1.097,1.086-2.48,1.629-4.152,1.629c-0.581,0-1.134-0.07-1.659-0.211c-0.526-0.139-1.02-0.35-1.479-0.631
		c-0.051-0.289-0.075-0.689-0.075-1.201c0.24,0.021,0.458,0.035,0.653,0.045s0.368,0.016,0.518,0.016
		c0.852,0,1.567-0.236,2.147-0.707c0.771-0.611,1.157-1.605,1.157-2.979c0-0.984-0.168-1.789-0.504-2.416
		c-0.335-0.627-0.733-1.051-1.193-1.271c-0.641-0.301-1.362-0.451-2.163-0.451c-0.751,0-1.286,0.111-1.606,0.332
		c-0.08,0.129-0.141,0.256-0.181,0.375l0.105,7.08l-0.03,0.602l0.045,0.631c0.011,0.141,0.016,0.346,0.016,0.615v1.232l0.015,1.969
		l-0.03,2.346c0,0.33,0.03,0.777,0.091,1.338l2.988,0.375c0.04,0.24,0.06,0.432,0.06,0.57c0,0.15-0.024,0.361-0.074,0.631
		c-0.251,0.041-0.441,0.061-0.571,0.061c-0.311,0-0.896-0.037-1.757-0.113c-0.861-0.074-1.842-0.111-2.943-0.111
		c-1.241,0-2.423,0.08-3.544,0.24c-0.19,0.029-0.491,0.055-0.901,0.074c-0.04-0.289-0.06-0.506-0.06-0.645
		c0-0.092,0.01-0.23,0.029-0.422l0.916-0.299c0.631-0.191,1.177-0.422,1.638-0.691c0.09-0.291,0.135-0.557,0.135-0.797
		c0-0.1-0.005-0.215-0.015-0.344c-0.011-0.311-0.016-0.746-0.016-1.307l-0.045-4.221l-0.165-4.762
		c-0.07-2.262-0.125-3.482-0.165-3.664c-0.07-0.289-0.19-0.518-0.36-0.684c-0.171-0.164-0.456-0.281-0.856-0.352
		C168.145,89.039,167.594,88.924,167.324,88.834z"/>
	<linearGradient id="SVGID_12_" gradientUnits="userSpaceOnUse" x1="198.8857" y1="87.7773" x2="195.183" y2="108.7766">
		<stop  offset="0" style="stop-color:#005AA9"/>
		<stop  offset="0.6209" style="stop-color:#153885"/>
		<stop  offset="1" style="stop-color:#000037"/>
	</linearGradient>
	<path fill="url(#SVGID_12_)" d="M186.771,106.344c0.261-0.139,0.646-0.242,1.156-0.307c0.511-0.066,0.972-0.174,1.382-0.324
		c0.05-0.199,0.08-0.344,0.09-0.436c0.021-0.139,0.03-0.619,0.03-1.441l-0.015-3.348l0.06-1.803l-0.03-1.396l0.03-0.811
		c0.03-1.092,0.045-2.113,0.045-3.064c0-2.082-0.024-3.414-0.075-3.994l-0.886-0.18c-0.811-0.051-1.352-0.102-1.622-0.15
		l-0.029-0.902l0.06-0.164c0.501-0.08,0.961-0.121,1.382-0.121c0.23,0,0.695-0.004,1.396-0.014c0.721,0.059,1.111,0.09,1.171,0.09
		l0.796-0.045l1.878-0.092c1.171-0.119,2.407-0.18,3.709-0.18c2.053,0,3.685,0.523,4.896,1.57c1.212,1.045,1.817,2.244,1.817,3.596
		c0,1.012-0.327,1.93-0.98,2.756s-1.659,1.449-3.016,1.869c0.119,0.211,0.279,0.457,0.479,0.736
		c0.419,0.602,0.759,1.111,1.018,1.531l2.395,3.891c0.601,1.031,0.994,1.635,1.18,1.811c0.185,0.174,0.567,0.367,1.148,0.578
		c0.45,0.17,0.796,0.34,1.036,0.51c0.061,0.17,0.09,0.32,0.09,0.451c0,0.09-0.005,0.205-0.015,0.344h-0.405l-0.301,0.016
		l-0.781-0.105h-0.615c-0.32-0.049-0.716-0.074-1.187-0.074l-1.502-0.016c-0.11,0-0.46,0.035-1.051,0.105
		c-0.271,0.029-0.486,0.055-0.646,0.074l-0.511-0.99c-0.421-0.75-0.716-1.311-0.887-1.682c-0.44-0.971-1.196-2.518-2.268-4.641
		c-0.5-0.98-0.851-1.537-1.051-1.668c-0.301-0.209-0.816-0.314-1.547-0.314c-0.2,0-0.541,0.01-1.021,0.029
		c-0.029,0.291-0.045,0.637-0.045,1.037l0.075,3.334l-0.09,2.822c0.28,0.172,0.646,0.301,1.096,0.391
		c0.781,0.16,1.452,0.352,2.013,0.572c0,0.49-0.02,0.859-0.06,1.109c-0.19-0.01-0.311-0.014-0.36-0.014l-0.616,0.029
		c-2.152-0.189-3.429-0.285-3.829-0.285c-0.261,0-0.446,0.006-0.556,0.016l-2.073,0.135c-0.63,0.07-1.206,0.105-1.727,0.105h-0.646
		c-0.021-0.25-0.03-0.41-0.03-0.48C186.727,106.699,186.741,106.545,186.771,106.344z M193.529,96.629
		c0.48,0.02,0.831,0.029,1.052,0.029c1.701,0,2.908-0.305,3.619-0.916s1.066-1.428,1.066-2.447c0-0.631-0.088-1.225-0.263-1.781
		c-0.175-0.555-0.392-0.969-0.651-1.238c-0.369-0.391-0.854-0.686-1.453-0.887c-0.439-0.148-1.144-0.225-2.111-0.225
		c-0.46,0-0.854,0.025-1.184,0.076l-0.03,0.285l0.03,2.027l-0.045,1.23l0.015,1.637c-0.02,0.461-0.035,1.057-0.045,1.787V96.629z"/>
	<linearGradient id="SVGID_13_" gradientUnits="userSpaceOnUse" x1="218.9951" y1="86.8525" x2="215.1455" y2="108.6847">
		<stop  offset="0" style="stop-color:#005AA9"/>
		<stop  offset="0.6209" style="stop-color:#153885"/>
		<stop  offset="1" style="stop-color:#000037"/>
	</linearGradient>
	<path fill="url(#SVGID_13_)" d="M207.57,87.828c0.571,0.029,1.066,0.074,1.487,0.135c0.791,0.109,1.707,0.166,2.748,0.166
		c0.36,0,1.286-0.031,2.778-0.092c2.232-0.09,4.25-0.135,6.052-0.135l2.719-0.029c0.61,0,1.512,0.074,2.703,0.225
		c0.18,0.201,0.271,0.471,0.271,0.811v3.094l0.029,0.617c0,0.059-0.005,0.148-0.015,0.27l-0.616,0.029c-0.08,0-0.25-0.01-0.51-0.029
		c-0.091-0.201-0.211-0.496-0.361-0.887l-0.601-1.066c-0.23-0.449-0.551-0.91-0.961-1.381c-0.25-0.07-0.57-0.109-0.961-0.119
		c-0.101-0.012-0.405-0.035-0.916-0.076c-0.931-0.08-1.933-0.119-3.004-0.119c-1.222,0-2.312,0.02-3.273,0.059
		c-0.03,0.25-0.045,1.236-0.045,2.959l0.015,2.523v1.893c0.251,0.029,0.467,0.045,0.647,0.045c1.796,0,3.075-0.035,3.838-0.105
		s1.233-0.168,1.414-0.293s0.342-0.344,0.482-0.654c0.09-0.219,0.266-0.955,0.526-2.207l0.195-0.016l0.871,0.016
		c0.04,0.891,0.06,1.566,0.06,2.027c0,1.051-0.007,1.727-0.022,2.027c-0.015,0.301-0.022,0.535-0.022,0.707
		c0,0.27,0.016,0.703,0.045,1.299c0.03,0.596,0.046,1.039,0.046,1.328v0.33h-1.066c-0.041-0.16-0.116-0.49-0.226-0.99
		c-0.201-0.932-0.382-1.512-0.542-1.742c-0.121-0.18-0.321-0.316-0.603-0.406c-0.2-0.07-0.942-0.105-2.228-0.105
		c-1.515,0-2.653,0.041-3.416,0.121c0,0.26,0,0.43,0,0.51c0,1.191,0.021,2.184,0.061,2.975l-0.03,3.244
		c0,0.381,0.135,0.641,0.405,0.781c0.41,0.209,1.667,0.314,3.77,0.314c1.392,0,2.573-0.105,3.544-0.314
		c0.671-0.15,1.262-0.486,1.772-1.008c0.681-0.67,1.246-1.611,1.697-2.822c0.31-0.029,0.565-0.045,0.766-0.045
		c0.109,0,0.275,0.004,0.495,0.016c-0.029,0.25-0.054,0.459-0.073,0.629l-0.089,0.451l-0.548,2.838l-0.266,1.713
		c-0.651,0.029-1.168,0.045-1.548,0.045c-0.562,0-2.06-0.051-4.494-0.15c-1.714-0.07-3.777-0.105-6.192-0.105
		c-1.202,0-2.68,0.051-4.434,0.15h-0.631l-1.818,0.061v-1.037c0.189-0.049,0.57-0.104,1.141-0.164
		c1.041-0.121,1.763-0.281,2.163-0.48c0.109-0.291,0.165-0.656,0.165-1.098c0-0.17-0.005-0.459-0.015-0.871l0.015-0.465
		l-0.045-5.662l0.015-1.697l-0.075-2.402l0.016-1.697l-0.136-1.861c0-0.051-0.01-0.15-0.03-0.301c-0.1-0.109-0.25-0.18-0.45-0.211
		c-0.11-0.02-0.261-0.049-0.45-0.09c-0.571-0.119-1.121-0.189-1.652-0.209c-0.19-0.01-0.41-0.031-0.66-0.061L207.57,87.828z"/>
	<linearGradient id="SVGID_14_" gradientUnits="userSpaceOnUse" x1="238.7402" y1="87.29" x2="235.0466" y2="108.2379">
		<stop  offset="0" style="stop-color:#005AA9"/>
		<stop  offset="0.6209" style="stop-color:#153885"/>
		<stop  offset="1" style="stop-color:#000037"/>
	</linearGradient>
	<path fill="url(#SVGID_14_)" d="M229.481,88.834l-0.016-1.141l3.589,0.225l1.607-0.016h0.586c0.61,0,1.566-0.035,2.868-0.105
		c0.74-0.049,1.206-0.074,1.396-0.074c1.262,0,2.213,0.07,2.854,0.211c0.98,0.199,1.759,0.52,2.335,0.961
		c0.575,0.439,1.071,1.068,1.486,1.885c0.416,0.816,0.624,1.574,0.624,2.275c0,1.74-0.549,3.156-1.645,4.242
		c-1.097,1.086-2.48,1.629-4.152,1.629c-0.581,0-1.134-0.07-1.659-0.211c-0.526-0.139-1.02-0.35-1.479-0.631
		c-0.051-0.289-0.075-0.689-0.075-1.201c0.24,0.021,0.458,0.035,0.653,0.045s0.368,0.016,0.518,0.016
		c0.852,0,1.567-0.236,2.147-0.707c0.771-0.611,1.157-1.605,1.157-2.979c0-0.984-0.168-1.789-0.504-2.416
		c-0.335-0.627-0.733-1.051-1.193-1.271c-0.641-0.301-1.362-0.451-2.163-0.451c-0.751,0-1.286,0.111-1.606,0.332
		c-0.08,0.129-0.141,0.256-0.181,0.375l0.105,7.08l-0.03,0.602l0.045,0.631c0.011,0.141,0.016,0.346,0.016,0.615v1.232l0.015,1.969
		l-0.03,2.346c0,0.33,0.03,0.777,0.091,1.338l2.988,0.375c0.04,0.24,0.06,0.432,0.06,0.57c0,0.15-0.024,0.361-0.074,0.631
		c-0.251,0.041-0.441,0.061-0.571,0.061c-0.311,0-0.896-0.037-1.757-0.113c-0.861-0.074-1.842-0.111-2.943-0.111
		c-1.241,0-2.423,0.08-3.544,0.24c-0.19,0.029-0.491,0.055-0.901,0.074c-0.04-0.289-0.06-0.506-0.06-0.645
		c0-0.092,0.01-0.23,0.029-0.422l0.916-0.299c0.631-0.191,1.177-0.422,1.638-0.691c0.09-0.291,0.135-0.557,0.135-0.797
		c0-0.1-0.005-0.215-0.015-0.344c-0.011-0.311-0.016-0.746-0.016-1.307l-0.045-4.221l-0.165-4.762
		c-0.07-2.262-0.125-3.482-0.165-3.664c-0.07-0.289-0.19-0.518-0.36-0.684c-0.171-0.164-0.456-0.281-0.856-0.352
		C230.302,89.039,229.751,88.924,229.481,88.834z"/>
</g>
<g>
	<g>
		<g>
			<linearGradient id="SVGID_15_" gradientUnits="userSpaceOnUse" x1="143.7285" y1="8.7432" x2="101.4384" y2="124.9342">
				<stop  offset="0" style="stop-color:#005AA9"/>
				<stop  offset="0.6209" style="stop-color:#153885"/>
				<stop  offset="1" style="stop-color:#000037"/>
			</linearGradient>
			<path fill="url(#SVGID_15_)" d="M135.289,76.203c-1.147,2.533-3.617,6.729-3.645,6.711c5.372-0.611,9.678-4.691,12.201-8.592
				c2.59-3.902,3.395-7.625,3.418-7.576C141.547,74.619,136.372,73.623,135.289,76.203z M139.585,64.854
				c-0.711,2.693-2.45,7.232-2.483,7.22c5.198-1.5,8.777-6.244,10.616-10.523c1.909-4.291,2.084-8.118,2.112-8.073
				C145.506,62.242,140.225,62.125,139.585,64.854z M141.938,52.915c-0.251,2.788-1.214,7.567-1.246,7.559
				c4.883-2.36,7.624-7.661,8.712-12.223c1.162-4.585,0.669-8.43,0.706-8.391C147.352,49.329,142.108,50.098,141.938,52.915z
				 M129.16,86.691c-1.553,2.314-4.709,6.055-4.737,6.033c5.415,0.291,10.349-3.025,13.482-6.455
				c3.207-3.422,4.613-6.957,4.629-6.906C135.599,86.168,130.661,84.326,129.16,86.691z M142.232,40.655
				c0.238,2.823,0.096,7.733,0.061,7.729c4.418-3.174,6.218-8.918,6.488-13.666c0.338-4.778-0.852-8.559-0.807-8.525
				C146.966,36.164,141.906,37.813,142.232,40.655z M88.637,114.648c-2.926,0.818-8.367,1.66-8.386,1.621
				c4.365,3.727,10.846,4.299,15.795,3.594c5.02-0.648,8.505-2.57,8.495-2.514C94.349,118.352,91.542,113.756,88.637,114.648z
				 M100.941,110.299c-2.623,1.285-7.561,3.014-7.581,2.979c4.796,2.928,11.029,2.414,15.617,0.908
				c4.661-1.461,7.675-3.918,7.672-3.859C107.035,112.984,103.535,108.945,100.941,110.299z M121.317,96.053
				c-1.936,2.031-5.73,5.209-5.756,5.182c5.326,1.193,10.789-1.271,14.472-4.143c3.755-2.854,5.73-6.113,5.739-6.061
				C127.785,96.604,123.21,93.959,121.317,96.053z M111.874,104.012c-2.293,1.688-6.683,4.195-6.705,4.164
				c5.117,2.078,11.011,0.551,15.178-1.678c4.239-2.199,6.75-5.1,6.752-5.045C118.222,105.639,114.131,102.256,111.874,104.012z
				 M97.468,102.295c-0.094,0.262-10.798,4.221-17.327,13.172c0.02,0.037,5.398-0.795,8.292-1.604
				C91.266,113.037,91.792,108.252,97.468,102.295z M123.815,92.188c0.027,0.021,3.146-3.676,4.682-5.963
				c1.484-2.271-1.345-6.127-0.976-13.977C127.589,72.518,122.186,81.828,123.815,92.188z M115.052,100.602
				c0.022,0.025,3.777-3.117,5.691-5.125c1.86-2.002-0.259-6.293,1.427-13.998C122.194,81.754,115.298,90.068,115.052,100.602z
				 M104.778,107.463c0.022,0.033,4.361-2.447,6.627-4.117c2.209-1.672,0.889-6.275,3.907-13.625
				C115.294,89.998,107.019,97.086,104.778,107.463z M93.103,112.506c0.021,0.035,4.902-1.674,7.496-2.943
				c2.534-1.279,2.099-6.055,6.446-12.824C106.989,97.012,97.443,102.648,93.103,112.506z M136.352,71.77
				c0.032,0.014,1.749-4.477,2.453-7.137c0.656-2.631-3.283-5.306-5.512-12.86C133.452,52.018,131.372,62.624,136.352,71.77z
				 M130.951,82.488c0.03,0.018,2.47-4.131,3.604-6.637c1.083-2.48-2.353-5.789-3.293-13.585
				C131.374,62.527,127.575,72.602,130.951,82.488z M139.899,60.302c0.033,0.008,0.985-4.717,1.231-7.473
				c0.202-2.721-4.118-4.688-7.617-11.829c-0.026,0.025,0.137,2.924,0.884,6.686C135.186,51.476,136.556,56.127,139.899,60.302z
				 M141.481,48.349c0.035,0.004,0.176-4.851-0.059-7.641c-0.278-2.749-4.863-3.956-9.6-10.517
				c-0.023,0.027,0.671,2.914,2.066,6.545C135.335,40.387,137.482,44.779,141.481,48.349z M141.644,38.417
				c0.002,0.015,0.003,0.03,0.005,0.046c0-0.008,0-0.016,0.002-0.022c0.004,0.006,0.007,0.015,0.008,0.021
				c-0.001-0.016-0.001-0.031-0.004-0.047c0.024-0.189,0.049-0.378,0.072-0.568c2.912-6.54,0.469-16.157-3.689-23.042
				c-4.014-7.074-9.739-11.414-10.062-11.772c-0.006-0.011-0.016-0.022-0.024-0.033c0,0,0.003,0.007,0.008,0.021
				c-0.009-0.01-0.016-0.014-0.016-0.014c0.008,0.01,0.016,0.021,0.024,0.033c0.197,0.552,2.902,6.89,5.143,13.974
				c2.462,7.172,4.46,15.091,8.352,20.862C141.522,38.055,141.583,38.236,141.644,38.417z"/>
		</g>
	</g>
	<g>
		<g>
			<linearGradient id="SVGID_16_" gradientUnits="userSpaceOnUse" x1="62.6753" y1="15.4297" x2="28.6194" y2="108.9975">
				<stop  offset="0" style="stop-color:#005AA9"/>
				<stop  offset="0.6209" style="stop-color:#153885"/>
				<stop  offset="1" style="stop-color:#000037"/>
			</linearGradient>
			<path fill="url(#SVGID_16_)" d="M9.213,66.746c0.024-0.049,0.83,3.674,3.419,7.576c2.524,3.9,6.83,7.98,12.201,8.592
				c-0.028,0.018-2.499-4.178-3.645-6.711C20.106,73.623,14.931,74.619,9.213,66.746z M6.648,53.478
				c0.027-0.045,0.201,3.783,2.11,8.073c1.841,4.279,5.418,9.023,10.616,10.523c-0.031,0.012-1.771-4.527-2.482-7.22
				C16.251,62.125,10.971,62.242,6.648,53.478z M6.368,39.86c0.036-0.039-0.457,3.806,0.704,8.391
				c1.088,4.562,3.832,9.862,8.713,12.223c-0.034,0.008-0.995-4.771-1.247-7.559C14.369,50.098,9.125,49.329,6.368,39.86z
				 M13.943,79.363c0.014-0.051,1.422,3.484,4.627,6.906c3.135,3.43,8.069,6.746,13.483,6.455c-0.028,0.021-3.184-3.719-4.736-6.033
				C25.817,84.326,20.878,86.168,13.943,79.363z M8.502,26.193c0.044-0.034-1.144,3.747-0.807,8.525
				c0.271,4.748,2.069,10.492,6.488,13.666c-0.036,0.004-0.177-4.906,0.061-7.729C14.572,37.813,9.511,36.164,8.502,26.193z
				 M51.936,117.35c-0.01-0.057,3.475,1.865,8.496,2.514c4.949,0.705,11.43,0.133,15.794-3.594
				c-0.019,0.039-5.458-0.803-8.385-1.621C64.935,113.756,62.129,118.352,51.936,117.35z M39.829,110.326
				c-0.004-0.059,3.011,2.398,7.671,3.859c4.588,1.506,10.822,2.02,15.618-0.908c-0.021,0.035-4.959-1.693-7.583-2.979
				C52.942,108.945,49.443,112.984,39.829,110.326z M20.706,91.031c0.009-0.053,1.985,3.207,5.739,6.061
				c3.682,2.871,9.146,5.336,14.471,4.143c-0.025,0.027-3.822-3.15-5.756-5.182C33.268,93.959,28.694,96.604,20.706,91.031z
				 M29.378,101.453c0.003-0.055,2.514,2.846,6.752,5.045c4.168,2.229,10.06,3.756,15.177,1.678
				c-0.02,0.031-4.411-2.477-6.704-4.164C42.346,102.256,38.255,105.639,29.378,101.453z M68.043,113.863
				c2.894,0.809,8.273,1.641,8.292,1.604c-6.527-8.951-17.232-12.91-17.327-13.172C64.685,108.252,65.211,113.037,68.043,113.863z
				 M28.957,72.248c0.368,7.85-2.46,11.705-0.977,13.977c1.535,2.287,4.655,5.984,4.683,5.963
				C34.291,81.828,28.887,72.518,28.957,72.248z M34.307,81.479c1.686,7.705-0.432,11.996,1.429,13.998
				c1.913,2.008,5.667,5.15,5.689,5.125C41.178,90.068,34.283,81.754,34.307,81.479z M41.165,89.721
				c3.019,7.35,1.698,11.953,3.907,13.625c2.265,1.67,6.606,4.15,6.628,4.117C49.458,97.086,41.184,89.998,41.165,89.721z
				 M49.432,96.738c4.348,6.77,3.912,11.545,6.447,12.824c2.593,1.27,7.475,2.979,7.496,2.943
				C59.034,102.648,49.488,97.012,49.432,96.738z M23.186,51.772c-2.23,7.555-6.169,10.229-5.511,12.86
				c0.703,2.661,2.42,7.151,2.452,7.137C25.106,62.624,23.026,52.018,23.186,51.772z M25.216,62.266
				c-0.939,7.796-4.375,11.105-3.293,13.585c1.133,2.506,3.574,6.654,3.603,6.637C28.903,72.602,25.104,62.527,25.216,62.266z
				 M22.08,47.686c0.747-3.762,0.909-6.661,0.885-6.686c-3.499,7.141-7.819,9.108-7.617,11.829c0.247,2.755,1.199,7.481,1.231,7.473
				C19.92,56.127,21.293,51.476,22.08,47.686z M22.589,36.736c1.394-3.631,2.088-6.518,2.065-6.545
				c-4.738,6.561-9.322,7.768-9.599,10.517c-0.234,2.79-0.095,7.646-0.06,7.641C18.994,44.779,21.142,40.387,22.589,36.736z
				 M15.017,37.875c3.892-5.771,5.89-13.69,8.353-20.862c2.239-7.084,4.943-13.422,5.141-13.974
				c0.009-0.011,0.016-0.022,0.024-0.033c0,0-0.007,0.004-0.016,0.014C28.523,3.007,28.526,3,28.526,3
				c-0.008,0.011-0.017,0.022-0.024,0.033C28.18,3.391,22.453,7.731,18.44,14.805c-4.157,6.885-6.602,16.502-3.689,23.042
				c0.024,0.19,0.047,0.379,0.072,0.568c-0.002,0.016-0.003,0.031-0.004,0.047c0.002-0.007,0.004-0.015,0.008-0.021
				c0.002,0.006,0.002,0.015,0.002,0.022c0.001-0.016,0.002-0.031,0.005-0.046C14.894,38.236,14.955,38.055,15.017,37.875z"/>
		</g>
	</g>
</g>
<g>
	<linearGradient id="SVGID_17_" gradientUnits="userSpaceOnUse" x1="123.0654" y1="18.6279" x2="38.0966" y2="67.6847">
		<stop  offset="0" style="stop-color:#005AA9"/>
		<stop  offset="0.6209" style="stop-color:#153885"/>
		<stop  offset="1" style="stop-color:#000037"/>
	</linearGradient>
	<path fill="url(#SVGID_17_)" d="M43.761,8.954h-4.766v1.417H53.08C49.127,9.979,45.934,9.498,43.761,8.954z M112.715,8.954
		c-2.173,0.543-5.366,1.025-9.318,1.417h14.084V8.954H112.715z M45.667,73.652c0,11.709,29.331,21.748,32.569,24.193
		c3.232-2.453,32.574-12.6,32.574-24.193c0,0,0-55.199,0-55.959c-0.902,0-64.24,0-65.143,0
		C45.667,18.453,45.667,73.652,45.667,73.652z M43.224,16.757v57.407c0,13.402,35.015,26.941,35.015,26.941
		s35.015-13.668,35.015-26.941V16.757c2.427-1.674,3.909-3.546,4.18-5.529H39.043C39.314,13.21,40.796,15.083,43.224,16.757z
		 M111.731,73.652c0,12.553-31.833,23.99-33.187,25l-0.306,0.229l-0.308-0.227c-1.354-1.006-33.185-12.328-33.185-25.002V16.921
		h0.004V13.98h2.808v2.941h1.471V13.98h2.807v2.941h1.471V13.98h2.806v2.941h1.472V13.98h2.807v2.941h1.472V13.98h2.806v2.941h1.47
		V13.98h2.808v2.941h1.472V13.98h2.808v2.941h1.471V13.98h2.806v2.941h1.471V13.98h2.806v2.941h1.471V13.98h2.808v2.941h1.471V13.98
		h2.808v2.941h1.471V13.98h2.807v2.941h1.471V13.98h2.807v2.941h1.473V13.98h2.806v2.941h1.471V13.98h2.805v2.941h1.473V13.98h2.807
		v2.941h0.004V73.652z M115.747,12.595H40.73c-0.096-0.224-0.177-0.449-0.241-0.676h75.499
		C115.924,12.146,115.844,12.371,115.747,12.595z"/>
	<polygon fill="#FFFFFF" points="49.092,55.981 49.092,62.06 78.244,36.332 107.146,61.999 107.146,55.927 78.208,30.257 	"/>
	<polygon fill="#FFFFFF" points="49.092,69.611 49.092,75.689 78.244,49.961 107.146,75.627 107.146,69.557 78.208,43.887 	"/>
	<g>
		<path fill="#FFFFFF" d="M46.699,23.298l-0.048-0.832h1.011l0.344-0.012c0.476-0.023,0.805-0.036,0.987-0.036
			c0.095,0,0.372,0.008,0.832,0.024c0.104,0.007,0.191,0.011,0.262,0.011c0.072,0,0.321-0.008,0.75-0.023
			c0.427-0.016,0.669-0.023,0.725-0.023c0.087,0,0.21,0.003,0.368,0.011c1.22,1.11,2.216,2.065,2.985,2.865
			c0.768,0.801,3.575,3.604,8.417,8.408v-0.298l-0.047-1.379c-0.023-0.809-0.055-1.449-0.093-1.921
			c-0.042-0.471-0.064-1.034-0.072-1.687c-0.008-0.655-0.037-1.247-0.084-1.779c-0.094-1.038-0.142-1.636-0.142-1.795
			c-0.008-0.515-0.064-0.828-0.166-0.939c-0.168-0.174-0.549-0.305-1.142-0.392c-0.437-0.071-0.762-0.163-0.976-0.274l0.012-0.702
			l0.308-0.035l2.342-0.072l2.617-0.071c0.175-0.007,0.341-0.012,0.5-0.012l0.01,0.773c-0.181,0.096-0.367,0.167-0.558,0.215
			c-0.508,0.119-0.801,0.202-0.878,0.249c-0.406,0.23-0.624,0.369-0.656,0.417c-0.07,0.095-0.106,0.242-0.106,0.44
			c0,0.047,0.008,0.213,0.023,0.499c0.008,0.143,0.012,0.475,0.012,0.999c0.006,1.149,0.04,2.058,0.094,2.723
			c0.016,0.214,0.027,0.456,0.036,0.725l0.132,4.174c0.006,0.294,0.012,0.5,0.012,0.618v1.462l0.035,0.619l-0.035,0.641
			c0.032,0.326,0.047,0.52,0.047,0.583v0.63l-1.366,0.047l-1.417-1.463l-2.889-2.865L56.865,31.8l-1.485-1.522
			c-0.968-0.951-1.847-1.787-2.64-2.508l-1.939-1.748l0.107,4.422c0.008,0.271,0.011,0.548,0.011,0.833l-0.011,0.844l0.071,1.558
			c0.024,0.649,0.067,1.355,0.13,2.116c0.016,0.207,0.037,0.351,0.06,0.434c0.025,0.083,0.072,0.204,0.143,0.363
			c0.31,0.111,0.983,0.194,2.022,0.25c0.071,0.016,0.174,0.043,0.308,0.083l0.048,0.963L53.227,37.9
			c-0.254,0-1.055-0.06-2.402-0.178c-1.26,0.015-2.1,0.04-2.52,0.071c-0.421,0.032-0.651,0.047-0.69,0.047
			c-0.096,0-0.226-0.016-0.393-0.047c-0.016-0.182-0.023-0.34-0.023-0.476c0-0.087,0.004-0.23,0.012-0.428
			c0.222-0.039,0.404-0.059,0.546-0.059c0.048,0,0.202,0.008,0.464,0.023c0.665,0,1.06-0.05,1.183-0.148
			c0.124-0.099,0.192-0.367,0.208-0.803c0.055-1.261,0.083-2.029,0.083-2.307v-0.654l0.023-3.864l-0.036-2.415
			c-0.007-0.919-0.067-1.557-0.178-1.914c-0.048-0.183-0.139-0.341-0.273-0.476c-0.277-0.285-0.586-0.5-0.927-0.642
			C48.098,23.544,47.562,23.434,46.699,23.298z"/>
	</g>
	<g>
		<path fill="#FFFFFF" d="M91.728,23.263V22.24c0.412,0.008,0.662,0.016,0.749,0.024c0.976,0.111,2.256,0.167,3.84,0.167
			c0.238,0,0.723-0.023,1.45-0.072c0.524-0.039,0.916-0.079,1.178-0.119h0.868c0.015,0.579,0.023,0.904,0.023,0.976
			c-0.792,0.103-1.256,0.171-1.391,0.202c-0.348,0.094-0.606,0.223-0.772,0.38c-0.089,0.087-0.132,0.19-0.132,0.31
			c0,0.086,0.009,0.173,0.024,0.261l0.393,1.034c0.277,0.809,0.737,1.907,1.38,3.294l1.355,3.067
			c0.261,0.595,0.499,1.158,0.713,1.688l0.689-1.688l1.415-3.923l0.333-0.833c0.04-0.119,0.09-0.286,0.155-0.499
			c0.206-0.706,0.377-1.241,0.518-1.605c0.137-0.365,0.206-0.662,0.206-0.892c0-0.151-0.074-0.282-0.224-0.393
			c-0.23-0.174-0.607-0.286-1.13-0.333c-0.111-0.031-0.257-0.057-0.441-0.077c-0.182-0.02-0.345-0.045-0.487-0.077
			c-0.047-0.159-0.071-0.278-0.071-0.357c0-0.103,0.015-0.285,0.048-0.547c0.142,0,0.55,0.032,1.226,0.096
			c0.673,0.063,1.329,0.095,1.972,0.095c0.658,0,1.222-0.03,1.689-0.089c0.467-0.059,0.848-0.093,1.141-0.102v0.381
			c0,0.094-0.002,0.237-0.011,0.428c-1.022,0.373-1.622,0.626-1.796,0.761c-0.111,0.079-0.217,0.21-0.32,0.393
			c-0.302,0.531-0.762,1.605-1.379,3.222l-1.522,3.936c-0.143,0.38-0.3,0.783-0.47,1.207c-0.17,0.423-0.351,0.89-0.542,1.397
			c-0.039,0.119-0.225,0.594-0.558,1.427l-0.12,0.214c-0.349,1.118-0.61,1.89-0.784,2.319c-0.314,0.015-0.51,0.023-0.59,0.023
			c-0.149,0-0.356-0.008-0.624-0.023c-0.087-0.238-0.174-0.48-0.262-0.726c-0.086-0.246-0.423-1.106-1.01-2.58l-2.248-5.041
			l-1.346-3.247c-0.689-1.474-1.065-2.264-1.128-2.366c-0.136-0.198-0.288-0.34-0.455-0.428c-0.167-0.087-0.512-0.154-1.039-0.202
			L91.728,23.263z"/>
	</g>
	<g>
		<path fill="#FFFFFF" d="M69.868,68.59l-0.012-0.904l2.843,0.178l1.271-0.012h0.464c0.483,0,1.24-0.027,2.271-0.082
			c0.586-0.039,0.955-0.061,1.106-0.061c0.999,0,1.751,0.057,2.259,0.166c0.777,0.16,1.393,0.414,1.85,0.762
			c0.456,0.35,0.848,0.848,1.176,1.492c0.33,0.646,0.494,1.248,0.494,1.803c0,1.379-0.436,2.498-1.304,3.357
			C81.419,76.15,80.323,76.58,79,76.58c-0.461,0-0.898-0.057-1.313-0.166c-0.417-0.111-0.809-0.277-1.172-0.5
			c-0.04-0.23-0.06-0.547-0.06-0.951c0.19,0.016,0.364,0.027,0.517,0.035c0.154,0.008,0.292,0.012,0.411,0.012
			c0.674,0,1.242-0.186,1.701-0.561c0.609-0.482,0.916-1.27,0.916-2.357c0-0.779-0.132-1.416-0.398-1.912
			c-0.265-0.498-0.581-0.832-0.946-1.008c-0.507-0.238-1.078-0.357-1.712-0.357c-0.595,0-1.019,0.088-1.271,0.264
			c-0.066,0.102-0.113,0.201-0.144,0.297l0.083,5.605l-0.023,0.477l0.034,0.5c0.008,0.111,0.013,0.273,0.013,0.486v0.977
			l0.011,1.559l-0.024,1.857c0,0.262,0.024,0.615,0.072,1.059l2.367,0.297c0.03,0.191,0.048,0.342,0.048,0.453
			c0,0.117-0.022,0.285-0.06,0.498c-0.199,0.033-0.349,0.049-0.451,0.049c-0.247,0-0.711-0.029-1.393-0.09
			c-0.681-0.059-1.458-0.09-2.33-0.09c-0.982,0-1.919,0.064-2.807,0.191c-0.15,0.023-0.388,0.043-0.714,0.059
			c-0.031-0.229-0.048-0.4-0.048-0.512c0-0.07,0.009-0.182,0.026-0.332l0.724-0.238c0.499-0.15,0.933-0.332,1.297-0.547
			c0.071-0.23,0.107-0.439,0.107-0.631c0-0.078-0.004-0.17-0.011-0.273c-0.009-0.244-0.014-0.59-0.014-1.033L72.4,76.354
			l-0.131-3.77c-0.056-1.791-0.099-2.758-0.131-2.9c-0.055-0.23-0.149-0.41-0.285-0.541c-0.135-0.131-0.362-0.225-0.678-0.279
			C70.516,68.752,70.082,68.66,69.868,68.59z"/>
	</g>
</g>
</svg>
